<svg xmlns="http://www.w3.org/2000/svg" xml:space="preserve" id="Layer_1" width="100%" x="0" y="0" viewBox="0 0 512 512"><path fill="#fef3e5" d="M513 76c0 59.688 0 119.375-.469 179.544-83.246.483-166.024.482-248.802.5-2.157 0-4.313.2-6.474-.11.001-83.765.009-167.116.002-250.466 0-1.49-.168-2.979-.257-4.468 60.02 0 120.042 0 180.19.308 1.827 1.1 3.452 2.204 5.24 2.638 25.124 6.097 43.98 20.927 57.122 42.66 5.098 8.432 7.652 18.397 11.454 27.627.304.737 1.313 1.185 1.994 1.767m-88.788 83.677c8.487-11.49 12.293-24.001 9.894-38.475-4.842-29.21-33.055-47.6-61.452-40.502-23.757 5.937-41.372 31.146-36.798 56.498 4.136 22.93 22.888 40.597 47.173 41.661 16.456.722 30.164-5.906 41.183-19.182"/><path fill="#f9aa16" d="M257.26 256.35c2.156-.107 4.312-.306 6.469-.306 82.778-.018 165.556-.017 248.802-.032.469 61.676.469 123.363.137 185.221-.775.995-1.392 1.77-1.636 2.65-3.688 13.335-9.59 25.623-18.616 36.094-13.237 15.358-29.385 26.394-49.414 31.157-.456.109-.673 1.222-1.002 1.866-61.354 0-122.708 0-184.486-.467-.414-34.937-.413-69.407-.375-103.876.002-2.148.292-4.295.855-6.527 25.729-.098 51.052-.043 76.374-.205 3.51-.022 5.14 1.14 6.712 4.295 10.71 21.493 33.818 31.86 56.075 26.164 23.387-5.985 40.322-30.272 36.023-54.934-4.269-24.498-23.685-40.795-46.646-41.277-20.623-.432-36.217 9.118-45.803 27.852-.864 1.689-3.119 3.79-4.74 3.801-26.15.178-52.303.049-78.574-.455-.177-2.597-.285-4.75-.289-6.904-.059-34.519-.104-69.037-.115-103.713.038-.158.248-.405.248-.405"/><path fill="#33dfc2" d="M256.531 1c.558 1.49.726 2.978.726 4.468.007 83.35 0 166.701-.002 250.467.004.414-.206.661-.705.737-37.086.109-73.673.142-110.302-.282-.058-25.438.02-50.42-.186-75.4-.033-4.067 1.22-6.037 4.937-7.845 22.96-11.167 33.07-37.958 24.285-61.707-7.319-19.787-30.112-35.195-54.27-31.323-25.507 4.09-45 29.215-41.194 54.768 2.665 17.898 11.794 31.125 28.283 38.94 2.528 1.198 3.823 2.55 3.804 5.59-.156 25.813-.148 51.626-.64 77.396a41565 41565 0 0 0-93.82-.086c-5.482.002-10.965.18-16.447.277 0-60.688 0-121.375.337-182.234.777-.995 1.415-1.772 1.629-2.651 4.079-16.816 12.27-31.462 24.297-43.726 12.412-12.656 27.468-21.1 44.745-25.452C72.785 2.74 73.341 1.666 74 1z"/><path fill="#e02c68" d="M1 257.469c5.482-.566 10.965-.744 16.447-.746 31.124-.009 62.248.024 93.986.543.703 25.82.709 51.142.97 76.46.041 3.932-1.225 5.995-4.804 7.567-19.829 8.71-30.592 33.307-26.813 51.885 4.927 24.216 23.647 40.268 47.354 40.608 20.214.29 35.56-9.56 44.785-27.808 1.76-3.482 3.695-4.375 7.25-4.357 24.161.121 48.324.053 72.486.086 1.642.003 3.284.331 4.926.508-.156 2.147-.446 4.294-.448 6.442-.038 34.47-.04 68.94-.094 103.876-61.4.467-122.753.467-184.361.1-.594-.718-.877-1.28-1.285-1.393-35.53-9.895-58.333-32.575-68.518-68.015-.156-.544-1.233-.823-1.881-1.225z"/><path fill="none" d="M513 75.531c-.681-.113-1.69-.56-1.993-1.298-3.803-9.23-6.357-19.195-11.455-27.627-13.141-21.733-31.998-36.563-57.123-42.66-1.787-.434-3.412-1.538-4.77-2.638C462.927 1 487.854 1 513 1zM73.531 1c-.19.666-.746 1.741-1.523 1.937C54.731 7.29 39.675 15.733 27.263 28.389 15.235 40.653 7.045 55.299 2.966 72.115c-.214.88-.852 1.656-1.63 2.182C1 49.74 1 25.48 1 1zm368.938 512c-.14-.644.077-1.757.533-1.866 20.029-4.763 36.177-15.8 49.414-31.157 9.026-10.471 14.928-22.759 18.616-36.094.244-.88.86-1.655 1.636-2.181C513 465.594 513 489.187 513 513zM1 442.469c.648-.067 1.725.212 1.881.756 10.185 35.44 32.988 58.12 68.518 68.015.408.113.69.675.816 1.394C48.406 513 24.813 513 1 513z"/><path fill="#1c2935" d="M424.045 159.995c-10.852 12.958-24.56 19.586-41.016 18.864-24.285-1.064-43.037-18.73-47.173-41.66-4.574-25.353 13.041-50.562 36.798-56.5 28.397-7.097 56.61 11.293 61.452 40.503 2.4 14.474-1.407 26.986-10.06 38.793"/><path fill="#1d2936" d="M257.994 402.13c-2.049-.092-3.69-.42-5.333-.423-24.162-.033-48.325.035-72.486-.086-3.555-.018-5.49.875-7.25 4.357-9.224 18.249-24.571 28.097-44.785 27.808-23.707-.34-42.427-16.392-47.354-40.608-3.78-18.578 6.984-43.175 26.813-51.885 3.579-1.572 4.845-3.635 4.805-7.566-.262-25.32-.268-50.64-.522-76.418-.123-26.27-.13-52.083.025-77.895.019-3.04-1.276-4.393-3.804-5.591-16.489-7.815-25.618-21.042-28.283-38.94-3.805-25.553 15.687-50.679 41.194-54.768 24.158-3.872 46.951 11.536 54.27 31.323 8.784 23.75-1.324 50.54-24.285 61.707-3.716 1.808-4.97 3.778-4.937 7.845.207 24.98.128 49.962.02 75.856-.214 27.029-.354 53.145-.252 79.261.006 1.465 1.69 3.566 3.133 4.28 10.978 5.435 19.093 13.542 24.6 24.494.806 1.604 3.391 3.273 5.167 3.288 25.29.21 50.584.145 75.876.115.976 0 1.952-.306 2.928-.47 26.152.06 52.304.19 78.454.012 1.622-.01 3.877-2.112 4.741-3.801 9.586-18.734 25.18-28.284 45.803-27.852 22.96.482 42.377 16.78 46.646 41.277 4.299 24.662-12.636 48.95-36.023 54.934-22.257 5.695-45.365-4.671-56.075-26.164-1.573-3.155-3.203-4.317-6.712-4.295-25.322.162-50.645.107-76.374.205"/><path fill="#e02c68" d="M257.415 367.371a4.86 4.86 0 0 1-2.809.913c-25.292.03-50.585.095-75.876-.115-1.776-.015-4.36-1.684-5.168-3.288-5.506-10.952-13.621-19.06-24.6-24.494-1.442-.714-3.126-2.815-3.132-4.28-.102-26.116.038-52.232.293-78.804 36.754-.489 73.34-.522 110.389-.473.51 34.6.555 69.118.614 103.637.004 2.154.112 4.307.29 6.904"/></svg>