<svg xmlns="http://www.w3.org/2000/svg" width="203" height="40" viewBox="0 0 203 40"><title>logo-terrassa</title><g id="Home-05" fill="none" fill-rule="evenodd" stroke="none" stroke-width="1"><path id="BG" fill="#f3f3f3" d="M-411-6v3886h352V-6zm1612 0v3886h384V-6zm0 0"/><g id="Nav---Top" fill="#fff" transform="translate(-13 -6)"><g id="Terrassa-Logo"><path id="Shape" d="M20.04 24.291h-2.745L13.4 35.048h2.21l.805-2.28h4.268l.776 2.28h2.327zm-3.03 6.69 1.583-4.59h.03l1.478 4.59zm7.642 4.575c-.03.61-.418.969-.985.938v1.416c.254.06.507.06.76.06 1.895 0 2.448-.849 2.463-2.637V27.57h-2.238zm-.077-9.343h2.388v-1.925h-2.388zm11.042 1.356h-2.24v4.486c-.03 1.087-.641 1.728-1.342 1.728-1.105 0-1.328-.922-1.343-1.728V27.57h-2.24v4.859c0 .253.03.728.15 1.191.27 1.089 1.716 1.655 2.463 1.655 1.135 0 1.835-.462 2.313-1.148l.09.922h2.238a19 19 0 0 1-.089-1.34zm6.267-.222c-1.135 0-1.835.446-2.298 1.13l-.03-.043v-.865h-2.224v7.481h2.238v-4.501c.03-1.089.642-1.714 1.342-1.714 1.105 0 1.328.91 1.343 1.714v4.501h2.238v-4.875c0-.253-.028-.728-.148-1.19-.268-1.089-1.715-1.638-2.461-1.638m7.042-2.058-2.238.806v1.474H45.18v1.49h1.508v3.68c0 1.625.373 2.535 2.118 2.535.315 0 1.508-.104 1.762-.222V33.74c-.24.014-.477.044-.717.044-.775 0-.925-.27-.925-1.252v-3.471h1.687v-1.49h-1.687zm20.217 2.058c-1.134 0-1.836.446-2.537 1.415-.313-.82-1.552-1.415-2.388-1.415-1.135 0-1.835.446-2.298 1.102h-.03v-.88h-2.223v7.481h2.238v-4.501c.03-1.089.641-1.714 1.343-1.714 1.105 0 1.328.91 1.343 1.714v4.501h2.238v-4.501c.03-1.089.642-1.714 1.344-1.714 1.104 0 1.328.91 1.343 1.714v4.501h2.238v-4.501c0-.597.015-1.223-.224-1.788-.313-.82-1.551-1.414-2.387-1.414m-11.102 2.8c0-2.25-1.687-2.802-3.193-2.802-.807 0-1.597.12-2.21.477-.595.344-.998.922-1.013 1.86h2.148c-.03-.341.223-1.071 1-1.071.79 0 1.03.61 1.03.923v.7c-.896-.03-2.03.015-2.925.403-1.358.581-1.597 1.848-1.597 2.37 0 1.459 1.045 2.264 2.448 2.264 1.014 0 1.79-.357 2.297-1.223h.03c0 .313.03.657.075.997h2.015c-.03-.22-.09-.446-.105-.819zm-3.522 3.636c-.626 0-1.088-.448-1.088-1.074 0-1.206 1.595-1.191 2.372-1.176 0 .878-.045 2.25-1.284 2.25m25.728-3.308c-.058-.476-.163-.922-.373-1.342-.626-1.31-1.79-1.788-3.193-1.788-2.283 0-3.596 1.73-3.596 3.979 0 2.501 1.029 3.947 3.596 3.947 1.746 0 3.193-.609 3.388-2.459h-2.015c-.21.686-.598.97-1.373.97-1.15 0-1.283-.91-1.283-1.877h4.909c0-.492 0-.969-.06-1.43m-4.85-.06c.03-.822.253-1.582 1.282-1.582 1.09 0 1.313.76 1.313 1.581zm10.593-3.068c-1.135 0-1.836.446-2.298 1.13l-.03-.043v-.865h-2.223v7.481h2.238v-4.501c.03-1.089.642-1.714 1.342-1.714 1.105 0 1.328.91 1.343 1.714v4.501H88.6v-4.875c0-.253-.028-.728-.148-1.19-.27-1.089-1.717-1.638-2.462-1.638m7.043-2.058-2.238.806v1.474h-1.508v1.49h1.508v3.68c0 1.625.373 2.535 2.118 2.535.315 0 1.508-.104 1.762-.222V33.74c-.24.014-.477.044-.717.044-.775 0-.925-.27-.925-1.252v-3.471h1.687v-1.49h-1.687zm49.887-1.011h-2.238v4.144h-.03c-.42-.627-1.224-1.09-2-1.09-2.328 0-3.509 1.951-3.509 3.963 0 1.925 1.03 3.964 3.223 3.964.97 0 1.807-.403 2.3-1.282h.03c0 .357.03.7.058 1.058h2.24c-.03-.49-.075-.998-.075-1.49zm-3.849 9.491c-1.432 0-1.614-1.326-1.614-2.474 0-1.147.182-2.474 1.614-2.474 1.208 0 1.611 1.446 1.611 2.474s-.403 2.474-1.61 2.474m12.384-3.306c-.06-.477-.162-.924-.373-1.343-.627-1.31-1.79-1.788-3.193-1.788-2.283 0-3.596 1.729-3.596 3.978 0 2.505 1.03 3.949 3.596 3.949 1.745 0 3.193-.61 3.387-2.459h-2.015c-.21.686-.597.97-1.372.97-1.15 0-1.283-.91-1.283-1.878h4.909c0-.49 0-.97-.06-1.43m-4.85-.06c.03-.82.254-1.58 1.284-1.58 1.09 0 1.313.76 1.313 1.58zm18.428-6.125h-8.731v1.79h3.21v8.97h2.311v-8.97h3.211v-1.79zm6.756 6.185c-.06-.477-.163-.924-.373-1.343-.627-1.31-1.79-1.788-3.195-1.788-2.281 0-3.595 1.729-3.595 3.978 0 2.505 1.03 3.949 3.595 3.949 1.746 0 3.195-.61 3.39-2.459h-2.015c-.211.686-.598.97-1.375.97-1.15 0-1.283-.91-1.283-1.878h4.91c0-.49 0-.97-.06-1.43m-4.85-.06c.03-.82.254-1.58 1.282-1.58 1.092 0 1.313.76 1.313 1.58zm8.416-1.49h-.032l-.043-1.357h-2.045c.031.55.075 1.176.075 1.49l.015 5.99h2.223v-3.71c.016-.493.06-.909.3-1.327.22-.313.716-.52 1.088-.55h.97v-1.983c-1.119-.028-2.075.268-2.551 1.446m5.952 0h-.03l-.045-1.357h-2.045c.032.55.076 1.176.076 1.49l.015 5.99h2.222v-3.71c.015-.493.061-.909.298-1.327.225-.313.717-.52 1.091-.55h.969v-1.983c-1.12-.028-2.074.268-2.551 1.446m10.413 1.233c0-2.248-1.687-2.8-3.193-2.8-.807 0-1.597.119-2.21.476-.595.344-1 .922-1.015 1.86h2.15c-.031-.341.222-1.071 1-1.071.79 0 1.03.61 1.03.923v.7c-.897-.03-2.028.015-2.923.403-1.36.581-1.598 1.848-1.598 2.37 0 1.459 1.045 2.264 2.448 2.264 1.016 0 1.79-.357 2.298-1.223h.031c0 .313.03.657.074.997h2.016c-.031-.22-.09-.446-.105-.819v-4.08zm-3.522 3.637c-.626 0-1.09-.448-1.09-1.074 0-1.206 1.596-1.191 2.373-1.176.001.878-.044 2.25-1.283 2.25m7.43-4.29c0-.491.284-.67.895-.67.509 0 .985.222 1.016.73h2.015c-.103-1.654-1.447-2.22-3.03-2.22-1.313 0-3.208.684-3.208 2.25 0 1.741 1.328 2.054 2.76 2.398.448.103 1.525.357 1.525.954 0 .581-.463.834-1.077.834-.655 0-1.176-.327-1.221-.91h-2.075c.03 1.716 1.55 2.4 3.296 2.4 1.39 0 3.39-.82 3.39-2.457-.002-2.803-4.286-2.132-4.286-3.308m7.613 0c0-.491.285-.67.897-.67.508 0 .984.222 1.015.73h2.017c-.105-1.654-1.45-2.22-3.03-2.22-1.313 0-3.21.684-3.21 2.25 0 1.741 1.328 2.054 2.764 2.398.446.103 1.52.357 1.52.954 0 .581-.462.834-1.074.834-.656 0-1.179-.327-1.223-.91h-2.075c.031 1.716 1.552 2.4 3.298 2.4 1.389 0 3.387-.82 3.387-2.457-.001-2.803-4.286-2.132-4.286-3.308m12.152 4.736v-4.083c0-2.248-1.687-2.8-3.193-2.8-.807 0-1.596.119-2.211.476-.596.344-.997.922-1.015 1.86h2.15c-.03-.341.224-1.071 1-1.071.791 0 1.03.61 1.03.923v.7c-.896-.03-2.03.015-2.926.403-1.356.581-1.596 1.848-1.596 2.37 0 1.459 1.044 2.264 2.448 2.264 1.015 0 1.789-.357 2.298-1.223h.03c0 .313.031.657.076.997h2.015c-.03-.218-.091-.443-.106-.816m-3.523-.446c-.625 0-1.088-.448-1.088-1.074 0-1.206 1.596-1.191 2.374-1.176 0 .878-.046 2.25-1.286 2.25m-101.088-7.028a.368.368 0 0 0-.735 0l-.002 1.393h.737zm3.877 17.612V18.788l-12.734 12.789zm-7.337-16.805v.583h.32v-.583h.436v.583h.365v-.583h.337v2.837h.583V24.94h.512v.656h.318v-.656h.511v.656h.29v-.656h.482v5.46h.584v-2.837h.439v.583h.317v-.583h.366v.583h.362v-.583h.338v8.15h-2.257l-.002-3.018a1.198 1.198 0 0 0-2.395 0l-.003 3.022-2.338-.004v-8.15zm.862 1.449a.37.37 0 0 0-.37-.368.366.366 0 0 0-.365.368l-.003 1.392h.737zm5.144 0a.37.37 0 0 0-.37-.368.366.366 0 0 0-.366.368l-.002 1.392h.737zm5.97-5.592v16.305l1.568-1.569v-13.16zm2.87 2.907V36.85l1.583-1.596.013-7.326zm2.798 2.828v4.9l1.544-1.543.003-1.8zm-23.922 4.114 11.926 11.98h1.47L101.044 31.87zm15.235 11.98 12-11.98V31.87l-13.323 13.376zm-1.397-27.265 13.397 13.302V29.96l-11.927-11.978zm-1.84 0-12 11.904v1.472l13.397-13.376zm3.237 2.43-.012 22.316 1.506-1.493.009-19.323zm-9.358-7.057 1.377 2.83h12.806l1.46-2.912 1.052-.406 2.433-6.068h-1.704l-1.702 1.78-.487-.567-1.133.567V6.8h-2.027l-1.135 1.78-.727-.648-.704.623-.756-1.755h-1.865l-.81 1.86-.89-.808-.731.809-1.216-1.861h-1.945l.018 1.797-.99-.663-.486.728-1.621-1.86h-2.025l2.672 6.068zm17.334-5.427h.488l-1.865 4.128h-1.135zm-3.253 1.698.74-.246.245.327-1.227 1.554zm-1.52-1.693h.649l-.648 4.127h-1.622zm-2.49 1.447.41.327-.737 1.554-.245-1.635zm-2.697-1.447h.73l.487 4.127h-1.784zM112.327 9.3l.573.489-.245 1.553-.737-1.553zm9.28 3.95-1.11 1.86h-.568v-1.456h-1.135v1.456h-1.052v-1.456h-1.298v1.456h-1.135v-1.456h-1.216v1.456h-1.05v-1.456h-1.216v1.456h-1.216v-1.456h-1.135v1.456h-.405l-1.16-1.86zm-11.85-5.316 1.62 4.127h-1.62l-.567-4.127zm-2.306 1.57.736.245.246 1.634-1.226-1.552zm-2.313-1.57 2.514 4.127h-1.137l-1.864-4.127zm0 0"/></g></g></g></svg>