<svg xmlns="http://www.w3.org/2000/svg" id="Capa_1" data-name="Capa 1" viewBox="0 0 150 50"><path d="M59.39 8.8h6c3.62 0 6.35 2.21 6.35 6.72 0 3.94-2.08 6.88-6.35 6.88h-6Zm3.08 11.08h2.74c1.79 0 3.49-1.06 3.49-4.07 0-2.75-1-4.5-4-4.5h-2.23ZM76.75 11H74V8.8h2.79ZM74 12.55h2.79v9.85H74Zm5.3 0H82v1.25a3.38 3.38 0 0 1 3-1.52c3.18 0 4.61 2.5 4.61 5.3 0 2.63-1.49 5.08-4.46 5.08a3.64 3.64 0 0 1-3-1.48v4.68H79.3Zm7.53 4.95c0-1.56-.64-3.18-2.43-3.18S82 15.9 82 17.5s.62 3.13 2.43 3.13 2.4-1.53 2.4-3.13m14.23 4.9h-2.65V21h-.06a3.63 3.63 0 0 1-3.1 1.64c-3 0-3.7-1.61-3.7-4.06v-6.03h2.78v5.56c0 1.62.49 2.42 1.79 2.42 1.51 0 2.15-.82 2.15-2.82v-5.16h2.79Zm6.1-9.85h2v1.8h-2v4.89c0 .91.23 1.14 1.18 1.14a4 4 0 0 0 .86-.08v2.12a12 12 0 0 1-1.63.09c-1.71 0-3.2-.38-3.2-2.34v-5.82h-1.68v-1.8h1.68v-3h2.79Zm4.19 3.03c.15-2.53 2.49-3.3 4.76-3.3 2 0 4.45.44 4.45 2.8v5.13a5 5 0 0 0 .36 2.19h-2.83a5 5 0 0 1-.2-1 4.7 4.7 0 0 1-3.4 1.22c-1.93 0-3.45-.93-3.45-2.95 0-2.23 1.72-2.76 3.45-3s3.29-.19 3.29-1.29-.82-1.34-1.8-1.34-1.75.42-1.85 1.49Zm6.43 2a5.8 5.8 0 0 1-2.31.57c-.87.17-1.65.45-1.65 1.45s.8 1.26 1.71 1.26a2 2 0 0 0 2.25-2.27ZM129.7 16a1.9 1.9 0 0 0-2.07-1.7c-1.79 0-2.37 1.76-2.37 3.2s.57 3.11 2.32 3.11a2.11 2.11 0 0 0 2.21-2h2.69c-.35 2.6-2.22 4-4.88 4a4.85 4.85 0 0 1-5.12-5.05c0-3.06 1.88-5.33 5.17-5.33 2.4 0 4.6 1.22 4.77 3.74Zm7.76-5h-2.78V8.8h2.78Zm-2.78 1.52h2.78v9.88h-2.78Zm10.06-.24a4.91 4.91 0 0 1 5.26 5.2 5.25 5.25 0 0 1-10.5 0 4.9 4.9 0 0 1 5.24-5.2m0 8.35c1.9 0 2.47-1.59 2.47-3.15s-.57-3.16-2.47-3.16-2.45 1.58-2.45 3.16.57 3.15 2.45 3.15m.47-9.3h-1.94l1.88-2.7h3.09Zm-85.86 17.5h6.39c2.6 0 4.35.84 4.35 3.37a3 3 0 0 1-1.85 2.8 3.32 3.32 0 0 1 2.5 3.45c0 2.76-2.35 3.94-4.8 3.94h-6.59Zm3 5.5h3c1 0 1.83-.47 1.83-1.61s-1-1.57-2-1.57h-2.8Zm0 5.78h3.2c1.18 0 2.2-.38 2.2-1.79s-.87-1.94-2.15-1.94h-3.26Zm10.04-4.49c.16-2.54 2.42-3.31 4.63-3.31 2 0 4.33.45 4.33 2.81v5.12a5 5 0 0 0 .34 2.19h-2.75a3.8 3.8 0 0 1-.18-1 4.5 4.5 0 0 1-3.32 1.21c-1.86 0-3.35-.92-3.35-2.94 0-2.23 1.68-2.77 3.35-3s3.2-.2 3.2-1.3-.8-1.33-1.75-1.33-1.7.42-1.79 1.49Zm6.25 2a5.4 5.4 0 0 1-2.25.57c-.84.17-1.6.46-1.6 1.45s.78 1.26 1.66 1.26a2 2 0 0 0 2.19-2.27Zm4.84-5.04h2.57v1.83a3.48 3.48 0 0 1 3.14-2.1 2 2 0 0 1 .59.11v2.51a4 4 0 0 0-1-.1c-2 0-2.67 1.44-2.67 3.16v4.44h-2.7Zm13.81 3.47a1.85 1.85 0 0 0-2-1.69c-1.74 0-2.31 1.75-2.31 3.2s.55 3.1 2.25 3.1a2.09 2.09 0 0 0 2.16-2H100a4.39 4.39 0 0 1-4.74 4 4.77 4.77 0 0 1-5-5c0-3.06 1.83-5.34 5-5.34 2.32 0 4.45 1.23 4.63 3.74Zm6.49 2.12c.08 1.71.92 2.49 2.42 2.49a2.24 2.24 0 0 0 2.14-1.28h2.38a4.42 4.42 0 0 1-4.62 3.31 4.8 4.8 0 0 1-5-5.17 4.94 4.94 0 0 1 5-5.21c3.36 0 5 2.83 4.79 5.86Zm4.4-1.72c-.25-1.37-.83-2.09-2.15-2.09a2.14 2.14 0 0 0-2.25 2.09Zm4.42-7.62h2.71v13.6h-2.71Zm9.66 3.48a4.84 4.84 0 0 1 5.1 5.21 5.1 5.1 0 1 1-10.19 0 4.84 4.84 0 0 1 5.09-5.21m0 8.35c1.85 0 2.4-1.58 2.4-3.14s-.55-3.16-2.4-3.16-2.38 1.57-2.38 3.16.55 3.14 2.38 3.14m6.89-8.08h2.58V34h.05a3.53 3.53 0 0 1 3-1.64c2.87 0 3.6 1.62 3.6 4.07v6h-2.7v-5.56c0-1.62-.47-2.42-1.74-2.42-1.46 0-2.09.82-2.09 2.82v5.16h-2.71Zm11.22 3.04c.15-2.54 2.42-3.31 4.63-3.31 2 0 4.33.45 4.33 2.81v5.12a5 5 0 0 0 .34 2.19h-2.74a3.4 3.4 0 0 1-.19-1 4.5 4.5 0 0 1-3.32 1.21c-1.87 0-3.35-.92-3.35-2.94 0-2.23 1.67-2.77 3.35-3s3.2-.2 3.2-1.3-.8-1.33-1.75-1.33-1.7.42-1.8 1.49Zm6.25 2a5.35 5.35 0 0 1-2.24.57c-.84.17-1.61.46-1.61 1.45s.79 1.26 1.66 1.26a2 2 0 0 0 2.19-2.27ZM24.66 20l-1.6 1.61v6.13H17l-1.61 1.61L17 31h6.11v6.13l1.6 1.61 1.62-1.61V31h6.11L34 29.34l-1.62-1.61h-6.1V21.6Zm0-19.66A24.67 24.67 0 1 0 49.35 25 24.66 24.66 0 0 0 24.67.33m9 9.39a1 1 0 1 1-1 1 1 1 0 0 1 1-1m-18.32 5.14h18.59v.65H15.35Zm15.11 1.94v5.77l-2.89-2.91V16.8Zm-8.69 0v2.88l-2.9 2.89V16.8Zm-5.15 0v8l-2.9 2.89V16.8Zm-1.27-4.19H34v1.29H15.35Zm17.36 4.19h2.9v10.91l-2.9-2.9Zm-.64-6.11a1 1 0 1 1-1-1 1 1 0 0 1 1 1m-2.25-3.22a1 1 0 1 1-1 1 1 1 0 0 1 1-1m-1.27 2.25a1 1 0 1 1-1 1 1 1 0 0 1 1-1m-1.62 1a1 1 0 1 1-1-1 1 1 0 0 1 1 1m-2.26-3.25a1 1 0 1 1-1 1 1 1 0 0 1 1-1m-1.29 2.25a1 1 0 1 1-1 1 1 1 0 0 1 1-1m-1.61 1a1 1 0 1 1-1-1 1 1 0 0 1 1 1m-2.25-3.25a1 1 0 1 1-1 1 1 1 0 0 1 1-1m-1.28 2.25a1 1 0 1 1-1 1 1 1 0 0 1 1-1m-1.61 1a1 1 0 1 1-1-1 1 1 0 0 1 1 1m-2.26-3.25a1 1 0 1 1-1 1 1 1 0 0 1 1-1m2.25 35.06h-2.9V31l2.9 2.89Zm5.15 0h-2.9v-6.42l2.9 2.9Zm8.69 0h-2.89V39l2.89-2.9Zm5.15 0h-2.9v-8.66l2.9-2.9Zm-10.94-2.05L13.53 29.34 24.67 18.2l11.14 11.14ZM35 9.41a1 1 0 1 1 1-1 1 1 0 0 1-1 1"/></svg>